<mxfile host="app.diagrams.net" modified="2023-10-15T04:57:08.980Z" agent="Mozilla/5.0 (Windows NT 10.0; Win64; x64) AppleWebKit/537.36 (KHTML, like Gecko) Chrome/117.0.0.0 Safari/537.36" etag="TI5DeL6K9JiG2N5sI_m7" version="22.0.4" type="device">
  <diagram name="Page-1" id="B26PpSdpA0CUQggqFJnL">
    <mxGraphModel dx="1434" dy="790" grid="1" gridSize="10" guides="1" tooltips="1" connect="1" arrows="1" fold="1" page="1" pageScale="1" pageWidth="827" pageHeight="1169" math="0" shadow="0">
      <root>
        <mxCell id="0" />
        <mxCell id="1" parent="0" />
        <mxCell id="Tgnhw9O2b4wC5MJ8O7pF-1" value="CoffeeShop" style="html=1;whiteSpace=wrap;" parent="1" vertex="1">
          <mxGeometry x="70" y="242" width="110" height="50" as="geometry" />
        </mxCell>
        <mxCell id="Tgnhw9O2b4wC5MJ8O7pF-2" value="&quot;Abstract&quot; Product" style="swimlane;fontStyle=1;align=center;verticalAlign=top;childLayout=stackLayout;horizontal=1;startSize=26;horizontalStack=0;resizeParent=1;resizeParentMax=0;resizeLast=0;collapsible=1;marginBottom=0;whiteSpace=wrap;html=1;" parent="1" vertex="1">
          <mxGeometry x="480" y="50" width="160" height="124" as="geometry" />
        </mxCell>
        <mxCell id="Tgnhw9O2b4wC5MJ8O7pF-3" value="+ name: String&lt;br&gt;+ quantity: Integer" style="text;strokeColor=none;fillColor=none;align=left;verticalAlign=top;spacingLeft=4;spacingRight=4;overflow=hidden;rotatable=0;points=[[0,0.5],[1,0.5]];portConstraint=eastwest;whiteSpace=wrap;html=1;" parent="Tgnhw9O2b4wC5MJ8O7pF-2" vertex="1">
          <mxGeometry y="26" width="160" height="64" as="geometry" />
        </mxCell>
        <mxCell id="Tgnhw9O2b4wC5MJ8O7pF-4" value="" style="line;strokeWidth=1;fillColor=none;align=left;verticalAlign=middle;spacingTop=-1;spacingLeft=3;spacingRight=3;rotatable=0;labelPosition=right;points=[];portConstraint=eastwest;strokeColor=inherit;" parent="Tgnhw9O2b4wC5MJ8O7pF-2" vertex="1">
          <mxGeometry y="90" width="160" height="8" as="geometry" />
        </mxCell>
        <mxCell id="Tgnhw9O2b4wC5MJ8O7pF-5" value="+ consume(this)" style="text;strokeColor=none;fillColor=none;align=left;verticalAlign=top;spacingLeft=4;spacingRight=4;overflow=hidden;rotatable=0;points=[[0,0.5],[1,0.5]];portConstraint=eastwest;whiteSpace=wrap;html=1;" parent="Tgnhw9O2b4wC5MJ8O7pF-2" vertex="1">
          <mxGeometry y="98" width="160" height="26" as="geometry" />
        </mxCell>
        <mxCell id="Tgnhw9O2b4wC5MJ8O7pF-14" value="CoffeeProduct" style="swimlane;fontStyle=1;align=center;verticalAlign=top;childLayout=stackLayout;horizontal=1;startSize=26;horizontalStack=0;resizeParent=1;resizeParentMax=0;resizeLast=0;collapsible=1;marginBottom=0;whiteSpace=wrap;html=1;" parent="1" vertex="1">
          <mxGeometry x="380" y="380" width="160" height="114" as="geometry" />
        </mxCell>
        <mxCell id="Tgnhw9O2b4wC5MJ8O7pF-15" value="+ region: String&lt;br&gt;+ roasting_date: String" style="text;strokeColor=none;fillColor=none;align=left;verticalAlign=top;spacingLeft=4;spacingRight=4;overflow=hidden;rotatable=0;points=[[0,0.5],[1,0.5]];portConstraint=eastwest;whiteSpace=wrap;html=1;" parent="Tgnhw9O2b4wC5MJ8O7pF-14" vertex="1">
          <mxGeometry y="26" width="160" height="54" as="geometry" />
        </mxCell>
        <mxCell id="Tgnhw9O2b4wC5MJ8O7pF-16" value="" style="line;strokeWidth=1;fillColor=none;align=left;verticalAlign=middle;spacingTop=-1;spacingLeft=3;spacingRight=3;rotatable=0;labelPosition=right;points=[];portConstraint=eastwest;strokeColor=inherit;" parent="Tgnhw9O2b4wC5MJ8O7pF-14" vertex="1">
          <mxGeometry y="80" width="160" height="8" as="geometry" />
        </mxCell>
        <mxCell id="Tgnhw9O2b4wC5MJ8O7pF-17" value="+ method(type): type" style="text;strokeColor=none;fillColor=none;align=left;verticalAlign=top;spacingLeft=4;spacingRight=4;overflow=hidden;rotatable=0;points=[[0,0.5],[1,0.5]];portConstraint=eastwest;whiteSpace=wrap;html=1;" parent="Tgnhw9O2b4wC5MJ8O7pF-14" vertex="1">
          <mxGeometry y="88" width="160" height="26" as="geometry" />
        </mxCell>
        <mxCell id="Tgnhw9O2b4wC5MJ8O7pF-18" value="Catalogue" style="swimlane;fontStyle=1;align=center;verticalAlign=top;childLayout=stackLayout;horizontal=1;startSize=26;horizontalStack=0;resizeParent=1;resizeParentMax=0;resizeLast=0;collapsible=1;marginBottom=0;whiteSpace=wrap;html=1;" parent="1" vertex="1">
          <mxGeometry x="55" y="50" width="160" height="130" as="geometry" />
        </mxCell>
        <mxCell id="Tgnhw9O2b4wC5MJ8O7pF-19" value="+ goods: Goods&lt;br&gt;+&amp;nbsp;" style="text;strokeColor=none;fillColor=none;align=left;verticalAlign=top;spacingLeft=4;spacingRight=4;overflow=hidden;rotatable=0;points=[[0,0.5],[1,0.5]];portConstraint=eastwest;whiteSpace=wrap;html=1;" parent="Tgnhw9O2b4wC5MJ8O7pF-18" vertex="1">
          <mxGeometry y="26" width="160" height="44" as="geometry" />
        </mxCell>
        <mxCell id="Tgnhw9O2b4wC5MJ8O7pF-20" value="" style="line;strokeWidth=1;fillColor=none;align=left;verticalAlign=middle;spacingTop=-1;spacingLeft=3;spacingRight=3;rotatable=0;labelPosition=right;points=[];portConstraint=eastwest;strokeColor=inherit;" parent="Tgnhw9O2b4wC5MJ8O7pF-18" vertex="1">
          <mxGeometry y="70" width="160" height="8" as="geometry" />
        </mxCell>
        <mxCell id="Tgnhw9O2b4wC5MJ8O7pF-21" value="+ sell(goods): Boolean {consume else produce}" style="text;strokeColor=none;fillColor=none;align=left;verticalAlign=top;spacingLeft=4;spacingRight=4;overflow=hidden;rotatable=0;points=[[0,0.5],[1,0.5]];portConstraint=eastwest;whiteSpace=wrap;html=1;" parent="Tgnhw9O2b4wC5MJ8O7pF-18" vertex="1">
          <mxGeometry y="78" width="160" height="52" as="geometry" />
        </mxCell>
        <mxCell id="Tgnhw9O2b4wC5MJ8O7pF-22" value="Product" style="swimlane;fontStyle=1;align=center;verticalAlign=top;childLayout=stackLayout;horizontal=1;startSize=26;horizontalStack=0;resizeParent=1;resizeParentMax=0;resizeLast=0;collapsible=1;marginBottom=0;whiteSpace=wrap;html=1;" parent="1" vertex="1">
          <mxGeometry x="560" y="210" width="160" height="114" as="geometry" />
        </mxCell>
        <mxCell id="Tgnhw9O2b4wC5MJ8O7pF-23" value="+ manufacture_date: String" style="text;strokeColor=none;fillColor=none;align=left;verticalAlign=top;spacingLeft=4;spacingRight=4;overflow=hidden;rotatable=0;points=[[0,0.5],[1,0.5]];portConstraint=eastwest;whiteSpace=wrap;html=1;" parent="Tgnhw9O2b4wC5MJ8O7pF-22" vertex="1">
          <mxGeometry y="26" width="160" height="54" as="geometry" />
        </mxCell>
        <mxCell id="Tgnhw9O2b4wC5MJ8O7pF-24" value="" style="line;strokeWidth=1;fillColor=none;align=left;verticalAlign=middle;spacingTop=-1;spacingLeft=3;spacingRight=3;rotatable=0;labelPosition=right;points=[];portConstraint=eastwest;strokeColor=inherit;" parent="Tgnhw9O2b4wC5MJ8O7pF-22" vertex="1">
          <mxGeometry y="80" width="160" height="8" as="geometry" />
        </mxCell>
        <mxCell id="Tgnhw9O2b4wC5MJ8O7pF-25" value="+ method(type): type" style="text;strokeColor=none;fillColor=none;align=left;verticalAlign=top;spacingLeft=4;spacingRight=4;overflow=hidden;rotatable=0;points=[[0,0.5],[1,0.5]];portConstraint=eastwest;whiteSpace=wrap;html=1;" parent="Tgnhw9O2b4wC5MJ8O7pF-22" vertex="1">
          <mxGeometry y="88" width="160" height="26" as="geometry" />
        </mxCell>
        <mxCell id="Gvj6GqQqcnnQqJ61h62s-1" value="Goods" style="swimlane;fontStyle=1;align=center;verticalAlign=top;childLayout=stackLayout;horizontal=1;startSize=26;horizontalStack=0;resizeParent=1;resizeParentMax=0;resizeLast=0;collapsible=1;marginBottom=0;whiteSpace=wrap;html=1;" parent="1" vertex="1">
          <mxGeometry x="270" y="46" width="160" height="138" as="geometry">
            <mxRectangle x="350" y="90" width="80" height="30" as="alternateBounds" />
          </mxGeometry>
        </mxCell>
        <mxCell id="Gvj6GqQqcnnQqJ61h62s-2" value="+ name: String&lt;br&gt;+ number_ready: Integer&lt;br&gt;+ price: Integer" style="text;strokeColor=none;fillColor=none;align=left;verticalAlign=top;spacingLeft=4;spacingRight=4;overflow=hidden;rotatable=0;points=[[0,0.5],[1,0.5]];portConstraint=eastwest;whiteSpace=wrap;html=1;" parent="Gvj6GqQqcnnQqJ61h62s-1" vertex="1">
          <mxGeometry y="26" width="160" height="54" as="geometry" />
        </mxCell>
        <mxCell id="Gvj6GqQqcnnQqJ61h62s-3" value="" style="line;strokeWidth=1;fillColor=none;align=left;verticalAlign=middle;spacingTop=-1;spacingLeft=3;spacingRight=3;rotatable=0;labelPosition=right;points=[];portConstraint=eastwest;strokeColor=inherit;" parent="Gvj6GqQqcnnQqJ61h62s-1" vertex="1">
          <mxGeometry y="80" width="160" height="8" as="geometry" />
        </mxCell>
        <mxCell id="Gvj6GqQqcnnQqJ61h62s-4" value="+ produce(type): Integer {consume products}&lt;br&gt;+ consume(this)" style="text;strokeColor=none;fillColor=none;align=left;verticalAlign=top;spacingLeft=4;spacingRight=4;overflow=hidden;rotatable=0;points=[[0,0.5],[1,0.5]];portConstraint=eastwest;whiteSpace=wrap;html=1;" parent="Gvj6GqQqcnnQqJ61h62s-1" vertex="1">
          <mxGeometry y="88" width="160" height="50" as="geometry" />
        </mxCell>
        <mxCell id="Gvj6GqQqcnnQqJ61h62s-5" value="PerishableProduct" style="swimlane;fontStyle=1;align=center;verticalAlign=top;childLayout=stackLayout;horizontal=1;startSize=26;horizontalStack=0;resizeParent=1;resizeParentMax=0;resizeLast=0;collapsible=1;marginBottom=0;whiteSpace=wrap;html=1;" parent="1" vertex="1">
          <mxGeometry x="380" y="210" width="160" height="114" as="geometry" />
        </mxCell>
        <mxCell id="Gvj6GqQqcnnQqJ61h62s-6" value="+ expiration_date: String" style="text;strokeColor=none;fillColor=none;align=left;verticalAlign=top;spacingLeft=4;spacingRight=4;overflow=hidden;rotatable=0;points=[[0,0.5],[1,0.5]];portConstraint=eastwest;whiteSpace=wrap;html=1;" parent="Gvj6GqQqcnnQqJ61h62s-5" vertex="1">
          <mxGeometry y="26" width="160" height="54" as="geometry" />
        </mxCell>
        <mxCell id="Gvj6GqQqcnnQqJ61h62s-7" value="" style="line;strokeWidth=1;fillColor=none;align=left;verticalAlign=middle;spacingTop=-1;spacingLeft=3;spacingRight=3;rotatable=0;labelPosition=right;points=[];portConstraint=eastwest;strokeColor=inherit;" parent="Gvj6GqQqcnnQqJ61h62s-5" vertex="1">
          <mxGeometry y="80" width="160" height="8" as="geometry" />
        </mxCell>
        <mxCell id="Gvj6GqQqcnnQqJ61h62s-8" value="+ method(type): type" style="text;strokeColor=none;fillColor=none;align=left;verticalAlign=top;spacingLeft=4;spacingRight=4;overflow=hidden;rotatable=0;points=[[0,0.5],[1,0.5]];portConstraint=eastwest;whiteSpace=wrap;html=1;" parent="Gvj6GqQqcnnQqJ61h62s-5" vertex="1">
          <mxGeometry y="88" width="160" height="26" as="geometry" />
        </mxCell>
        <mxCell id="Gvj6GqQqcnnQqJ61h62s-9" value="Order" style="swimlane;fontStyle=1;align=center;verticalAlign=top;childLayout=stackLayout;horizontal=1;startSize=26;horizontalStack=0;resizeParent=1;resizeParentMax=0;resizeLast=0;collapsible=1;marginBottom=0;whiteSpace=wrap;html=1;" parent="1" vertex="1">
          <mxGeometry x="55" y="400" width="160" height="134" as="geometry" />
        </mxCell>
        <mxCell id="Gvj6GqQqcnnQqJ61h62s-10" value="+ goods: Goods&lt;br&gt;+ client_name: String&lt;br&gt;+ invoice_price: Integer" style="text;strokeColor=none;fillColor=none;align=left;verticalAlign=top;spacingLeft=4;spacingRight=4;overflow=hidden;rotatable=0;points=[[0,0.5],[1,0.5]];portConstraint=eastwest;whiteSpace=wrap;html=1;" parent="Gvj6GqQqcnnQqJ61h62s-9" vertex="1">
          <mxGeometry y="26" width="160" height="74" as="geometry" />
        </mxCell>
        <mxCell id="Gvj6GqQqcnnQqJ61h62s-11" value="" style="line;strokeWidth=1;fillColor=none;align=left;verticalAlign=middle;spacingTop=-1;spacingLeft=3;spacingRight=3;rotatable=0;labelPosition=right;points=[];portConstraint=eastwest;strokeColor=inherit;" parent="Gvj6GqQqcnnQqJ61h62s-9" vertex="1">
          <mxGeometry y="100" width="160" height="8" as="geometry" />
        </mxCell>
        <mxCell id="Gvj6GqQqcnnQqJ61h62s-12" value="+ method(type): type" style="text;strokeColor=none;fillColor=none;align=left;verticalAlign=top;spacingLeft=4;spacingRight=4;overflow=hidden;rotatable=0;points=[[0,0.5],[1,0.5]];portConstraint=eastwest;whiteSpace=wrap;html=1;" parent="Gvj6GqQqcnnQqJ61h62s-9" vertex="1">
          <mxGeometry y="108" width="160" height="26" as="geometry" />
        </mxCell>
        <mxCell id="Gvj6GqQqcnnQqJ61h62s-13" style="edgeStyle=orthogonalEdgeStyle;rounded=0;orthogonalLoop=1;jettySize=auto;html=1;entryX=0.519;entryY=0.962;entryDx=0;entryDy=0;entryPerimeter=0;" parent="1" source="Tgnhw9O2b4wC5MJ8O7pF-14" target="Gvj6GqQqcnnQqJ61h62s-8" edge="1">
          <mxGeometry relative="1" as="geometry" />
        </mxCell>
        <mxCell id="Gvj6GqQqcnnQqJ61h62s-15" style="edgeStyle=orthogonalEdgeStyle;rounded=0;orthogonalLoop=1;jettySize=auto;html=1;entryX=0.456;entryY=1.038;entryDx=0;entryDy=0;entryPerimeter=0;" parent="1" source="Gvj6GqQqcnnQqJ61h62s-5" target="Tgnhw9O2b4wC5MJ8O7pF-5" edge="1">
          <mxGeometry relative="1" as="geometry" />
        </mxCell>
        <mxCell id="Gvj6GqQqcnnQqJ61h62s-16" style="edgeStyle=orthogonalEdgeStyle;rounded=0;orthogonalLoop=1;jettySize=auto;html=1;entryX=0.469;entryY=1.038;entryDx=0;entryDy=0;entryPerimeter=0;" parent="1" source="Tgnhw9O2b4wC5MJ8O7pF-22" target="Tgnhw9O2b4wC5MJ8O7pF-5" edge="1">
          <mxGeometry relative="1" as="geometry" />
        </mxCell>
        <mxCell id="Gvj6GqQqcnnQqJ61h62s-20" style="edgeStyle=orthogonalEdgeStyle;rounded=0;orthogonalLoop=1;jettySize=auto;html=1;entryX=1.013;entryY=0.136;entryDx=0;entryDy=0;entryPerimeter=0;exitX=0;exitY=0.121;exitDx=0;exitDy=0;exitPerimeter=0;" parent="1" source="Tgnhw9O2b4wC5MJ8O7pF-2" target="Gvj6GqQqcnnQqJ61h62s-1" edge="1">
          <mxGeometry relative="1" as="geometry" />
        </mxCell>
        <mxCell id="Gvj6GqQqcnnQqJ61h62s-21" style="edgeStyle=orthogonalEdgeStyle;rounded=0;orthogonalLoop=1;jettySize=auto;html=1;entryX=1.006;entryY=0.108;entryDx=0;entryDy=0;entryPerimeter=0;exitX=0;exitY=0.091;exitDx=0;exitDy=0;exitPerimeter=0;" parent="1" source="Gvj6GqQqcnnQqJ61h62s-1" target="Tgnhw9O2b4wC5MJ8O7pF-18" edge="1">
          <mxGeometry relative="1" as="geometry">
            <mxPoint x="260" y="64" as="sourcePoint" />
          </mxGeometry>
        </mxCell>
        <mxCell id="Gvj6GqQqcnnQqJ61h62s-22" value="" style="shape=switch;whiteSpace=wrap;html=1;shadow=1;fillColor=#ffe6cc;strokeColor=#d79b00;" parent="1" vertex="1">
          <mxGeometry x="80" y="950" width="180" height="130" as="geometry" />
        </mxCell>
        <mxCell id="Gvj6GqQqcnnQqJ61h62s-36" value="" style="shape=collate;whiteSpace=wrap;html=1;fillColor=#dae8fc;strokeColor=#6c8ebf;" parent="1" vertex="1">
          <mxGeometry x="130" y="945" width="80" height="80" as="geometry" />
        </mxCell>
        <mxCell id="Gvj6GqQqcnnQqJ61h62s-37" value="" style="shape=collate;whiteSpace=wrap;html=1;fillColor=#f8cecc;strokeColor=#b85450;" parent="1" vertex="1">
          <mxGeometry x="130" y="1025" width="80" height="80" as="geometry" />
        </mxCell>
        <mxCell id="Gvj6GqQqcnnQqJ61h62s-38" value="" style="shape=datastore;whiteSpace=wrap;html=1;shadow=1;fillColor=#e1d5e7;strokeColor=#9673a6;" parent="1" vertex="1">
          <mxGeometry x="140" y="900" width="60" height="60" as="geometry" />
        </mxCell>
        <mxCell id="Gvj6GqQqcnnQqJ61h62s-40" value="" style="shape=actor;whiteSpace=wrap;html=1;shadow=1;fillColor=#f8cecc;strokeColor=#b85450;" parent="1" vertex="1">
          <mxGeometry x="150" y="870" width="40" height="40" as="geometry" />
        </mxCell>
        <mxCell id="Gvj6GqQqcnnQqJ61h62s-44" value="" style="rhombus;whiteSpace=wrap;html=1;strokeWidth=2;fillWeight=-1;hachureGap=8;fillStyle=cross-hatch;fillColor=#006600;sketch=1;" parent="1" vertex="1">
          <mxGeometry x="130" y="990" width="80" height="70" as="geometry" />
        </mxCell>
        <mxCell id="Gvj6GqQqcnnQqJ61h62s-45" value="Actor" style="shape=umlActor;verticalLabelPosition=bottom;verticalAlign=top;html=1;" parent="1" vertex="1">
          <mxGeometry x="70" y="990" width="30" height="60" as="geometry" />
        </mxCell>
        <mxCell id="Gvj6GqQqcnnQqJ61h62s-46" value="" style="shape=umlLifeline;perimeter=lifelinePerimeter;whiteSpace=wrap;html=1;container=1;dropTarget=0;collapsible=0;recursiveResize=0;outlineConnect=0;portConstraint=eastwest;newEdgeStyle={&quot;curved&quot;:0,&quot;rounded&quot;:0};participant=umlActor;rotation=-180;" parent="1" vertex="1">
          <mxGeometry x="250" y="945" width="20" height="205" as="geometry" />
        </mxCell>
        <mxCell id="Gvj6GqQqcnnQqJ61h62s-50" value="" style="ellipse;html=1;shape=startState;fillColor=#000000;strokeColor=#ff0000;" parent="1" vertex="1">
          <mxGeometry x="70" y="940" width="30" height="30" as="geometry" />
        </mxCell>
        <mxCell id="Gvj6GqQqcnnQqJ61h62s-51" value="" style="edgeStyle=orthogonalEdgeStyle;html=1;verticalAlign=bottom;endArrow=halfCircle;endSize=8;strokeColor=#ff0000;rounded=0;endFill=0;" parent="1" edge="1">
          <mxGeometry relative="1" as="geometry">
            <mxPoint x="85" y="1000" as="targetPoint" />
            <mxPoint x="85" y="960" as="sourcePoint" />
          </mxGeometry>
        </mxCell>
        <mxCell id="Gvj6GqQqcnnQqJ61h62s-55" value="" style="ellipse;html=1;shape=endState;fillColor=#000000;strokeColor=#ff0000;" parent="1" vertex="1">
          <mxGeometry x="155" y="1010" width="30" height="30" as="geometry" />
        </mxCell>
        <mxCell id="Gvj6GqQqcnnQqJ61h62s-64" value="Roaster" style="swimlane;fontStyle=1;align=center;verticalAlign=top;childLayout=stackLayout;horizontal=1;startSize=26;horizontalStack=0;resizeParent=1;resizeParentMax=0;resizeLast=0;collapsible=1;marginBottom=0;whiteSpace=wrap;html=1;" parent="1" vertex="1">
          <mxGeometry x="630" y="370" width="180" height="130" as="geometry" />
        </mxCell>
        <mxCell id="Gvj6GqQqcnnQqJ61h62s-65" value="+ name: String" style="text;strokeColor=none;fillColor=none;align=left;verticalAlign=top;spacingLeft=4;spacingRight=4;overflow=hidden;rotatable=0;points=[[0,0.5],[1,0.5]];portConstraint=eastwest;whiteSpace=wrap;html=1;" parent="Gvj6GqQqcnnQqJ61h62s-64" vertex="1">
          <mxGeometry y="26" width="180" height="26" as="geometry" />
        </mxCell>
        <mxCell id="Gvj6GqQqcnnQqJ61h62s-66" value="" style="line;strokeWidth=1;fillColor=none;align=left;verticalAlign=middle;spacingTop=-1;spacingLeft=3;spacingRight=3;rotatable=0;labelPosition=right;points=[];portConstraint=eastwest;strokeColor=inherit;" parent="Gvj6GqQqcnnQqJ61h62s-64" vertex="1">
          <mxGeometry y="52" width="180" height="8" as="geometry" />
        </mxCell>
        <mxCell id="Gvj6GqQqcnnQqJ61h62s-67" value="+ roast_coffee(green_coffee: Product): Product {CoffeeProduct}" style="text;strokeColor=none;fillColor=none;align=left;verticalAlign=top;spacingLeft=4;spacingRight=4;overflow=hidden;rotatable=0;points=[[0,0.5],[1,0.5]];portConstraint=eastwest;whiteSpace=wrap;html=1;" parent="Gvj6GqQqcnnQqJ61h62s-64" vertex="1">
          <mxGeometry y="60" width="180" height="70" as="geometry" />
        </mxCell>
        <mxCell id="Gvj6GqQqcnnQqJ61h62s-68" style="edgeStyle=orthogonalEdgeStyle;rounded=0;orthogonalLoop=1;jettySize=auto;html=1;entryX=0.994;entryY=0.089;entryDx=0;entryDy=0;entryPerimeter=0;" parent="1" source="Gvj6GqQqcnnQqJ61h62s-64" target="Tgnhw9O2b4wC5MJ8O7pF-2" edge="1">
          <mxGeometry relative="1" as="geometry">
            <Array as="points">
              <mxPoint x="750" y="61" />
            </Array>
          </mxGeometry>
        </mxCell>
        <mxCell id="Gvj6GqQqcnnQqJ61h62s-69" value="" style="shape=curlyBracket;whiteSpace=wrap;html=1;rounded=1;flipH=1;labelPosition=right;verticalLabelPosition=middle;align=left;verticalAlign=middle;" parent="1" vertex="1">
          <mxGeometry x="260" y="950" width="20" height="120" as="geometry" />
        </mxCell>
      </root>
    </mxGraphModel>
  </diagram>
</mxfile>
